USFL
nRows=449
nColumns=2
inDegrees=yes
endheader
time	tib_ant_r	
1.29738	 56.016778	
1.33065	 56.006708	
1.36391	 56.020074	
1.39718	 56.022139	
1.43044	 56.026498	
1.46371	 56.020348	
1.49698	 56.023218	
1.53024	 56.031067	
1.56351	 56.036253	
1.59677	 56.032500	
1.63004	 56.032080	
1.66331	 56.041921	
1.69657	 56.037842	
1.72984	 56.064726	
1.7631	 56.054532	
1.79637	 56.054522	
1.82964	 56.068861	
1.8629	 56.064245	
1.89617	 56.054309	
1.92944	 56.061747	
1.9627	 56.063249	
1.99597	 56.063187	
2.02923	 56.056368	
2.0625	 56.060640	
2.09577	 56.054029	
2.12903	 56.060653	
2.1623	 56.055752	
2.19556	 56.055120	
2.22883	 56.067305	
2.2621	 56.072401	
2.29536	 56.085300	
2.32863	 56.069065	
2.3619	 56.068692	
2.39516	 56.072590	
2.42843	 56.079877	
2.46169	 56.078897	
2.49496	 56.077071	
2.52823	 56.074689	
2.56149	 56.066734	
2.59476	 56.073985	
2.62802	 56.067720	
2.66129	 56.067792	
2.69456	 56.073566	
2.72782	 56.093328	
2.76109	 56.102736	
2.79435	 56.098452	
2.82762	 56.109208	
2.86089	 56.127683	
2.89415	 56.123463	
2.92742	 56.125158	
2.96069	 56.142060	
2.99395	 56.143883	
3.02722	 56.142085	
3.06048	 56.133662	
3.09375	 56.138969	
3.12702	 56.135602	
3.16028	 56.128656	
3.19355	 56.119590	
3.22681	 56.122913	
3.26008	 56.124410	
3.29335	 56.127667	
3.32661	 56.151386	
3.35988	 56.149343	
3.39315	 56.136013	
3.42641	 56.142888	
3.45968	 56.138888	
3.49294	 56.127100	
3.52621	 56.139376	
3.55948	 56.146610	
3.59274	 56.175043	
3.62601	 56.170594	
3.65927	 56.165800	
3.69254	 56.180443	
3.72581	 56.176886	
3.75907	 56.180433	
3.79234	 56.179482	
3.8256	 56.179414	
3.85887	 56.191545	
3.89214	 56.183219	
3.9254	 56.192675	
3.95867	 56.203770	
3.99194	 56.199259	
4.0252	 56.206989	
4.05847	 56.220808	
4.09173	 56.213392	
4.125	 56.217790	
4.15827	 56.214634	
4.19153	 56.211029	
4.2248	 56.212498	
4.25806	 56.222706	
4.29133	 56.210926	
4.3246	 56.224423	
4.35786	 56.220651	
4.39113	 56.231022	
4.4244	 56.230221	
4.45766	 56.214432	
4.49093	 56.222777	
4.52419	 56.226973	
4.55746	 56.229945	
4.59073	 56.233067	
4.62399	 56.231293	
4.65726	 56.246033	
4.69052	 56.230108	
4.72379	 56.232264	
4.75706	 56.229222	
4.79032	 56.230996	
4.82359	 56.233618	
4.85685	 56.247565	
4.89012	 56.258394	
4.92339	 56.256613	
4.95665	 56.261591	
4.98992	 56.260925	
5.02319	 56.245266	
5.05645	 56.244579	
5.08972	 56.238166	
5.12298	 56.222159	
5.15625	 56.225512	
5.18952	 56.235534	
5.22278	 56.236324	
5.25605	 56.243831	
5.28931	 56.242095	
5.32258	 56.235749	
5.35585	 56.233380	
5.38911	 56.240526	
5.42238	 56.243194	
5.45565	 56.240277	
5.48891	 56.257912	
5.52218	 56.259014	
5.55544	 56.259757	
5.58871	 56.278442	
5.62198	 56.277506	
5.65524	 56.274654	
5.68851	 56.273831	
5.72177	 56.269187	
5.75504	 56.260777	
5.78831	 56.259446	
5.82157	 56.257245	
5.85484	 56.250689	
5.8881	 56.222179	
5.92137	 56.234019	
5.95464	 56.245923	
5.9879	 56.246152	
6.02117	 56.245003	
6.05444	 56.246233	
6.0877	 56.255888	
6.12097	 56.260723	
6.15423	 56.259153	
6.1875	 56.259998	
6.22077	 56.271408	
6.25403	 56.286917	
6.2873	 56.277862	
6.32056	 56.263679	
6.35383	 56.261198	
6.3871	 56.252766	
6.42036	 56.231197	
6.45363	 56.239040	
6.4869	 56.251150	
6.52016	 56.259172	
6.55343	 56.266900	
6.58669	 56.246310	
6.61996	 56.242067	
6.65323	 56.229988	
6.68649	 56.217187	
6.71976	 56.222554	
6.75302	 56.224710	
6.78629	 56.225551	
6.81956	 56.233001	
6.85282	 56.230335	
6.88609	 56.228837	
6.91935	 56.225639	
6.95262	 56.238325	
6.98589	 56.258307	
7.01915	 56.253719	
7.05242	 56.250574	
7.08569	 56.240994	
7.11895	 56.244122	
7.15222	 56.252387	
7.18548	 56.246398	
7.21875	 56.243789	
7.25202	 56.250633	
7.28528	 56.250038	
7.31855	 56.248017	
7.35181	 56.262249	
7.38508	 56.258864	
7.41835	 56.254625	
7.45161	 56.243111	
7.48488	 56.240740	
7.51815	 56.247183	
7.55141	 56.240152	
7.58468	 56.254836	
7.61794	 56.252373	
7.65121	 56.250180	
7.68448	 56.265099	
7.71774	 56.246064	
7.75101	 56.232505	
7.78427	 56.209048	
7.81754	 56.194361	
7.85081	 56.175043	
7.88407	 56.192985	
7.91734	 56.180656	
7.9506	 56.216693	
7.98387	 56.228089	
8.01714	 56.238480	
8.0504	 56.253992	
8.08367	 56.273979	
8.11694	 56.270961	
8.1502	 56.270252	
8.18347	 56.267471	
8.21673	 56.278913	
8.25	 56.265158	
8.28327	 56.266472	
8.31653	 56.259868	
8.3498	 56.254014	
8.38306	 56.257520	
8.41633	 56.266370	
8.4496	 56.293130	
8.48286	 56.288000	
8.51613	 56.297157	
8.5494	 56.300083	
8.58266	 56.313217	
8.61593	 56.308932	
8.64919	 56.287146	
8.68246	 56.298002	
8.71573	 56.314924	
8.74899	 56.291533	
8.78226	 56.300976	
8.81552	 56.296656	
8.84879	 56.273747	
8.88206	 56.269606	
8.91532	 56.270043	
8.94859	 56.272608	
8.98185	 56.283245	
9.01512	 56.293665	
9.04839	 56.293740	
9.08165	 56.311194	
9.11492	 56.316710	
9.14819	 56.350792	
9.18145	 56.347174	
9.21472	 56.339879	
9.24798	 56.333920	
9.28125	 56.329223	
9.31452	 56.324569	
9.34778	 56.316271	
9.38105	 56.316975	
9.41431	 56.312860	
9.44758	 56.307483	
9.48085	 56.298543	
9.51411	 56.279978	
9.54738	 56.284710	
9.58065	 56.289125	
9.61391	 56.300449	
9.64718	 56.299793	
9.68044	 56.307593	
9.71371	 56.312901	
9.74698	 56.308805	
9.78024	 56.315231	
9.81351	 56.321250	
9.84677	 56.312839	
9.88004	 56.319442	
9.91331	 56.298886	
9.94657	 56.305620	
9.97984	 56.305420	
10.0131	 56.315173	
10.0464	 56.319931	
10.0796	 56.330394	
10.1129	 56.327887	
10.1462	 56.347838	
10.1794	 56.358641	
10.2127	 56.357872	
10.246	 56.368111	
10.2792	 56.383051	
10.3125	 56.378995	
10.3458	 56.409908	
10.379	 56.411120	
10.4123	 56.385978	
10.4456	 56.366817	
10.4788	 56.380327	
10.5121	 56.382244	
10.5454	 56.390197	
10.5786	 56.389087	
10.6119	 56.381790	
10.6452	 56.363314	
10.6784	 56.364816	
10.7117	 56.360520	
10.745	 56.355247	
10.7782	 56.355658	
10.8115	 56.360421	
10.8448	 56.355937	
10.878	 56.369035	
10.9113	 56.381855	
10.9446	 56.376026	
10.9778	 56.385543	
11.0111	 56.392391	
11.0444	 56.387334	
11.0776	 56.394568	
11.1109	 56.390739	
11.1442	 56.381896	
11.1774	 56.388261	
11.2107	 56.369129	
11.244	 56.373319	
11.2772	 56.372330	
11.3105	 56.364382	
11.3437	 56.357118	
11.377	 56.387763	
11.4103	 56.421855	
11.4435	 56.441332	
11.4768	 56.450214	
11.5101	 56.476574	
11.5433	 56.499800	
11.5766	 56.499651	
11.6099	 56.497122	
11.6431	 56.511665	
11.6764	 56.506361	
11.7097	 56.549863	
11.7429	 56.541689	
11.7762	 56.545976	
11.8095	 56.564975	
11.8427	 56.545646	
11.876	 56.522368	
11.9093	 56.534151	
11.9425	 56.523658	
11.9758	 56.521307	
12.0091	 56.511351	
12.0423	 56.515373	
12.0756	 56.520408	
12.1089	 56.508817	
12.1421	 56.498743	
12.1754	 56.483313	
12.2087	 56.495052	
12.2419	 56.506112	
12.2752	 56.505641	
12.3085	 56.504240	
12.3417	 56.507292	
12.375	 56.495104	
12.4083	 56.501696	
12.4415	 56.478636	
12.4748	 56.483241	
12.5081	 56.481867	
12.5413	 56.476221	
12.5746	 56.472517	
12.6079	 56.480576	
12.6411	 56.489625	
12.6744	 56.499904	
12.7077	 56.504103	
12.7409	 56.496046	
12.7742	 56.491624	
12.8075	 56.496905	
12.8407	 56.497946	
12.874	 56.499834	
12.9073	 56.500128	
12.9405	 56.496513	
12.9738	 56.502325	
13.0071	 56.496602	
13.0403	 56.502832	
13.0736	 56.502768	
13.1069	 56.511303	
13.1401	 56.525269	
13.1734	 56.548978	
13.2067	 56.556363	
13.2399	 56.589379	
13.2732	 56.591312	
13.3065	 56.616994	
13.3397	 56.645405	
13.373	 56.648525	
13.4062	 56.653332	
13.4395	 56.663615	
13.4728	 56.663454	
13.506	 56.668997	
13.5393	 56.675241	
13.5726	 56.679027	
13.6058	 56.668682	
13.6391	 56.672870	
13.6724	 56.674947	
13.7056	 56.645555	
13.7389	 56.633109	
13.7722	 56.627550	
13.8054	 56.635763	
13.8387	 56.631110	
13.872	 56.637938	
13.9052	 56.647626	
13.9385	 56.648524	
13.9718	 56.661234	
14.005	 56.683775	
14.0383	 56.666229	
14.0716	 56.676002	
14.1048	 56.671692	
14.1381	 56.667805	
14.1714	 56.650149	
14.2046	 56.618828	
14.2379	 56.598468	
14.2712	 56.597613	
14.3044	 56.607536	
14.3377	 56.609480	
14.371	 56.601742	
14.4042	 56.599016	
14.4375	 56.597890	
14.4708	 56.574830	
14.504	 56.570208	
14.5373	 56.575182	
14.5706	 56.573576	
14.6038	 56.572762	
14.6371	 56.543734	
14.6704	 56.531522	
14.7036	 56.519062	
14.7369	 56.505802	
14.7702	 56.511858	
14.8034	 56.518888	
14.8367	 56.516916	
14.87	 56.506644	
14.9032	 56.507520	
14.9365	 56.507506	
14.9698	 56.524948	
15.003	 56.524761	
15.0363	 56.532422	
15.0696	 56.538975	
15.1028	 56.541940	
15.1361	 56.519751	
15.1694	 56.513925	
15.2026	 56.514463	
15.2359	 56.510151	
15.2692	 56.516613	
15.3024	 56.509190	
15.3357	 56.510444	
15.369	 56.503479	
15.4022	 56.502476	
15.4355	 56.502762	
15.4687	 56.494444	
15.502	 56.508941	
15.5353	 56.511127	
15.5685	 56.512855	
15.6018	 56.516239	
15.6351	 56.519010	
15.6683	 56.530361	
15.7016	 56.525717	
15.7349	 56.536978	
15.7681	 56.521840	
15.8014	 56.525894	
15.8347	 56.543107	
15.8679	 56.526518	
15.9012	 56.504848	
15.9345	 56.504376	
15.9677	 56.505631	
16.001	 56.496310	
16.0343	 56.497344	
16.0675	 56.498530	
16.1008	 56.499356	
16.1341	 56.498328	
16.1673	 56.526254	
16.2006	 56.509789	
